<?xml version="1.0" encoding="utf-8"?>
<!-- Generator: Adobe Illustrator 15.1.0, SVG Export Plug-In . SVG Version: 6.00 Build 0)  -->
<!DOCTYPE svg PUBLIC "-//W3C//DTD SVG 1.1//EN" "http://www.w3.org/Graphics/SVG/1.1/DTD/svg11.dtd">
<svg version="1.1" id="Ebene_1" xmlns="http://www.w3.org/2000/svg" xmlns:xlink="http://www.w3.org/1999/xlink" x="0px" y="0px"
	 width="47.821px" height="47.821px" viewBox="0 0 47.821 47.821" enable-background="new 0 0 47.821 47.821" xml:space="preserve">
<path fill="#0274B2" d="M47.817,46.299c0,0.838-0.678,1.52-1.516,1.52H1.516C0.679,47.819,0,47.137,0,46.299V1.516
	C0,0.679,0.679,0,1.516,0h44.786c0.838,0,1.516,0.679,1.516,1.516V46.299z"/>
<path fill="#FFFFFF" d="M20.362,23.907c0-2.42,1.963-4.383,4.384-4.383c2.42,0,4.383,1.963,4.383,4.383
	c0,2.423-1.963,4.384-4.383,4.384C22.325,28.292,20.362,26.331,20.362,23.907z"/>
<circle fill="#FFFFFF" cx="12.621" cy="11.785" r="4.384"/>
<circle fill="#FFFFFF" cx="36.409" cy="35.573" r="4.383"/>
</svg>
