<?xml version="1.0" encoding="utf-8"?>
<!-- Generator: Adobe Illustrator 15.1.0, SVG Export Plug-In . SVG Version: 6.00 Build 0)  -->
<!DOCTYPE svg PUBLIC "-//W3C//DTD SVG 1.1//EN" "http://www.w3.org/Graphics/SVG/1.1/DTD/svg11.dtd">
<svg version="1.1" id="Ebene_1" xmlns="http://www.w3.org/2000/svg" xmlns:xlink="http://www.w3.org/1999/xlink" x="0px" y="0px"
	 width="47.821px" height="47.821px" viewBox="0 0 47.821 47.821" enable-background="new 0 0 47.821 47.821" xml:space="preserve">
<path fill="#0274B2" d="M47.817,46.299c0,0.838-0.678,1.52-1.518,1.52H1.515C0.678,47.819,0,47.137,0,46.299V1.516
	C0,0.679,0.678,0,1.515,0h44.785c0.84,0,1.518,0.679,1.518,1.516V46.299z"/>
<circle fill="#FFFFFF" cx="35.638" cy="36.936" r="4.384"/>
<circle fill="#FFFFFF" cx="35.638" cy="11.269" r="4.384"/>
<circle fill="#FFFFFF" cx="12.104" cy="36.936" r="4.384"/>
<circle fill="#FFFFFF" cx="12.104" cy="11.269" r="4.384"/>
<circle fill="#FFFFFF" cx="24.406" cy="23.571" r="4.384"/>
<path fill="#0274B2" d="M47.817,46.299c0,0.838-0.678,1.52-1.516,1.52H1.515C0.679,47.819,0,47.137,0,46.299V1.516
	C0,0.679,0.679,0,1.515,0h44.787c0.838,0,1.516,0.679,1.516,1.516V46.299z"/>
<path fill="#FFFFFF" d="M31.542,37.844c0-2.422,1.965-4.383,4.383-4.383c2.422,0,4.385,1.961,4.385,4.383s-1.963,4.385-4.385,4.385
	C33.506,42.229,31.542,40.266,31.542,37.844z"/>
<path fill="#FFFFFF" d="M31.542,10.66c0-2.421,1.965-4.382,4.383-4.382c2.422,0,4.385,1.961,4.385,4.382
	c0,2.422-1.963,4.385-4.385,4.385C33.506,15.045,31.542,13.082,31.542,10.66z"/>
<circle fill="#FFFFFF" cx="12.389" cy="37.844" r="4.383"/>
<circle fill="#FFFFFF" cx="12.389" cy="10.66" r="4.383"/>
<path fill="#FFFFFF" d="M31.542,24.15c0-2.421,1.965-4.384,4.383-4.384c2.422,0,4.385,1.963,4.385,4.384
	c0,2.422-1.963,4.383-4.385,4.383C33.506,28.534,31.542,26.573,31.542,24.15z"/>
<circle fill="#FFFFFF" cx="12.389" cy="24.15" r="4.383"/>
</svg>
